<svg width="24" height="24" viewBox="0 0 24 24" fill="none" xmlns="http://www.w3.org/2000/svg">
<path d="M13.172 2C13.7024 2.00011 14.211 2.2109 14.586 2.586L21.296 9.296C21.5209 9.51911 21.6995 9.78455 21.8213 10.077C21.9432 10.3695 22.0059 10.6832 22.0059 11C22.0059 11.3168 21.9432 11.6305 21.8213 11.923C21.6995 12.2154 21.5209 12.4809 21.296 12.704L16.704 17.296C16.4809 17.5209 16.2154 17.6995 15.923 17.8213C15.6305 17.9432 15.3168 18.0059 15 18.0059C14.6832 18.0059 14.3695 17.9432 14.077 17.8213C13.7846 17.6995 13.5191 17.5209 13.296 17.296L6.586 10.586C6.2109 10.211 6.00011 9.70239 6 9.172V3C6 2.73478 6.10536 2.48043 6.29289 2.29289C6.48043 2.10536 6.73478 2 7 2H13.172Z" stroke="#155DFC" stroke-width="2" stroke-linecap="round" stroke-linejoin="round"/>
<path d="M2 7V13.172C2.00011 13.7024 2.2109 14.211 2.586 14.586L9.296 21.296C9.71131 21.7145 10.2662 21.9655 10.8547 22.0011C11.4432 22.0367 12.0243 21.8544 12.487 21.489" stroke="#155DFC" stroke-width="2" stroke-linecap="round" stroke-linejoin="round"/>
<path d="M10.5 7C10.7761 7 11 6.77614 11 6.5C11 6.22386 10.7761 6 10.5 6C10.2239 6 10 6.22386 10 6.5C10 6.77614 10.2239 7 10.5 7Z" fill="#155DFC" stroke="#155DFC" stroke-width="2" stroke-linecap="round" stroke-linejoin="round"/>
</svg>
