<svg width="127" height="24" viewBox="0 0 127 24" fill="none" xmlns="http://www.w3.org/2000/svg">
<path d="M0.000180891 23.4878V6.48204H3.33021V9.3756H3.41103C3.97681 7.38728 5.49634 6.20723 7.50082 6.20723C8.00194 6.20723 8.4384 6.28805 8.69704 6.33655V9.58575C8.42223 9.47259 7.80796 9.39177 7.12902 9.39177C4.88206 9.39177 3.49186 10.8951 3.49186 13.3037V23.4878H0.000180891ZM16.9012 8.98764C14.4602 8.98764 12.7467 10.8466 12.5689 13.4169H21.0718C20.991 10.8143 19.3421 8.98764 16.9012 8.98764ZM21.0556 18.4928H24.3695C23.8845 21.5965 20.9425 23.8111 17.0467 23.8111C12.0516 23.8111 9.02875 20.4326 9.02875 15.0657C9.02875 9.73123 12.1001 6.1749 16.9012 6.1749C21.6214 6.1749 24.5635 9.50492 24.5635 14.6616V15.8578H12.5528V16.068C12.5528 19.0262 14.3309 20.9822 17.1275 20.9822C19.1158 20.9822 20.5868 19.98 21.0556 18.4928ZM26.9482 23.4878V6.48204H30.2782V9.3271H30.359C31.2804 7.38728 33.0909 6.19106 35.7097 6.19106C39.46 6.19106 41.61 8.58351 41.61 12.4793V23.4878H38.1021V13.1583C38.1021 10.6042 36.9059 9.19778 34.4811 9.19778C32.024 9.19778 30.4398 10.9436 30.4398 13.5785V23.4878H26.9482ZM45.6758 2.45691H49.1837V6.48204H52.4167V9.24628H49.1837V18.6221C49.1837 20.0931 49.8303 20.7559 51.2528 20.7559C51.6085 20.7559 52.1742 20.7235 52.4005 20.6751V23.4393C52.0126 23.5363 51.2367 23.6009 50.4607 23.6009C47.0175 23.6009 45.6758 22.2916 45.6758 19.01V9.24628H43.2026V6.48204H45.6758V2.45691ZM60.6532 21.0145C63.0941 21.0145 65.0016 19.3333 65.0016 17.1187V15.777L60.8148 16.0357C58.7295 16.1811 57.5495 17.1026 57.5495 18.5574C57.5495 20.0446 58.778 21.0145 60.6532 21.0145ZM59.6833 23.7788C56.3533 23.7788 54.0255 21.7096 54.0255 18.6544C54.0255 15.68 56.3048 13.8534 60.3461 13.627L65.0016 13.3522V12.0429C65.0016 10.1515 63.7246 9.01997 61.5908 9.01997C59.5701 9.01997 58.3092 9.98988 58.0021 11.5094H54.7044C54.8984 8.43802 57.5171 6.1749 61.7201 6.1749C65.8422 6.1749 68.4771 8.35719 68.4771 11.768V23.4878H65.1309V20.6912H65.0501C64.064 22.5825 61.9141 23.7788 59.6833 23.7788ZM71.6701 23.4878V0.161454H75.1618V23.4878H71.6701ZM84.3681 21.0145C86.8091 21.0145 88.7166 19.3333 88.7166 17.1187V15.777L84.5298 16.0357C82.4445 16.1811 81.2644 17.1026 81.2644 18.5574C81.2644 20.0446 82.493 21.0145 84.3681 21.0145ZM83.3982 23.7788C80.0682 23.7788 77.7404 21.7096 77.7404 18.6544C77.7404 15.68 80.0197 13.8534 84.061 13.627L88.7166 13.3522V12.0429C88.7166 10.1515 87.4395 9.01997 85.3057 9.01997C83.2851 9.01997 82.0242 9.98988 81.717 11.5094H78.4194C78.6133 8.43802 81.2321 6.1749 85.435 6.1749C89.5572 6.1749 92.1921 8.35719 92.1921 11.768V23.4878H88.8459V20.6912H88.7651C87.779 22.5825 85.629 23.7788 83.3982 23.7788ZM95.2557 23.4878V6.48204H98.5857V9.3756H98.6666C99.2323 7.38728 100.752 6.20723 102.756 6.20723C103.257 6.20723 103.694 6.28805 103.953 6.33655V9.58575C103.678 9.47259 103.063 9.39177 102.385 9.39177C100.138 9.39177 98.7474 10.8951 98.7474 13.3037V23.4878H95.2557ZM105.901 23.4878V6.48204H109.392V23.4878H105.901ZM107.647 3.9926C106.531 3.9926 105.626 3.10351 105.626 2.00428C105.626 0.888887 106.531 -0.000197524 107.647 -0.000197524C108.778 -0.000197524 109.683 0.888887 109.683 2.00428C109.683 3.10351 108.778 3.9926 107.647 3.9926ZM118.583 21.0145C121.024 21.0145 122.931 19.3333 122.931 17.1187V15.777L118.744 16.0357C116.659 16.1811 115.479 17.1026 115.479 18.5574C115.479 20.0446 116.708 21.0145 118.583 21.0145ZM117.613 23.7788C114.283 23.7788 111.955 21.7096 111.955 18.6544C111.955 15.68 114.234 13.8534 118.276 13.627L122.931 13.3522V12.0429C122.931 10.1515 121.654 9.01997 119.52 9.01997C117.5 9.01997 116.239 9.98988 115.932 11.5094H112.634C112.828 8.43802 115.447 6.1749 119.65 6.1749C123.772 6.1749 126.407 8.35719 126.407 11.768V23.4878H123.06V20.6912H122.98C121.994 22.5825 119.844 23.7788 117.613 23.7788Z" fill="black"/>
</svg>
