<svg width="366" height="135" viewBox="0 0 366 135" fill="none" xmlns="http://www.w3.org/2000/svg">
<path d="M87.2792 83.7648H24.3457L53.9116 42.5074H31.3195V41.2692H54.8318L82.5816 2.48825H64.0817C60.1226 2.48825 56.5328 2.58705 53.3063 2.77805C50.0736 2.97565 47.0408 3.33131 44.2016 3.85823C41.3746 4.37197 38.5838 5.07013 35.8234 5.96588C33.0629 6.84846 30.1935 7.9945 27.2272 9.41717V1.25H90.1608L61.4908 41.2692H85.8506V42.5074H60.5948L31.9248 82.5266H50.4247C54.3596 82.5266 57.9433 82.4343 61.176 82.2367C64.4207 82.0457 67.4536 81.6967 70.2806 81.1829C73.1198 80.656 75.9105 79.9381 78.6589 79.0226C81.4193 78.1136 84.2887 76.9676 87.2792 75.5976V83.7648Z" fill="#282828"/>
<path d="M172.127 83.7648V82.9481C179.101 82.9481 182.588 77.4155 182.588 66.3503V8.25796L177.139 1.25H184.573L241.889 74.939V55.048C241.889 44.7073 241.574 36.1054 240.945 29.2555C240.315 22.4056 239.328 17.0047 237.99 13.0529C236.647 9.08785 234.927 6.26886 232.833 4.59591C230.732 2.90978 228.244 2.06672 225.375 2.06672V1.25H253.512V2.06672C246.52 2.06672 243.027 7.59932 243.027 18.6645V76.1772L248.96 83.7648H241.526L183.726 9.49621V29.9668C183.726 40.3141 184.04 48.9094 184.67 55.7593C185.3 62.6092 186.28 68.0232 187.624 71.9883C188.962 75.9401 190.681 78.7591 192.782 80.4452C194.876 82.1182 197.371 82.9481 200.264 82.9481V83.7648H172.127Z" fill="#282828"/>
<path d="M273.452 72.5298C269.917 68.6833 267.096 64.1913 265.001 59.0408C262.901 53.8968 261.854 48.4103 261.854 42.5747C261.854 36.693 262.883 31.1933 264.953 26.0823C267.017 20.958 269.869 16.4331 273.501 12.5142C277.145 8.58212 281.37 5.51943 286.165 3.31956C290.971 1.10652 296.141 0 301.662 0C307.165 0 312.317 1.10652 317.111 3.31956C321.918 5.51943 326.143 8.58212 329.775 12.5142C333.42 16.4331 336.277 20.958 338.347 26.0823C340.43 31.1933 341.471 36.693 341.471 42.5747C341.471 48.4103 340.43 53.8968 338.347 59.0408C336.277 64.1913 333.42 68.703 329.775 72.5825C326.143 76.4487 321.918 79.485 317.111 81.6981C312.317 83.8914 307.165 84.9913 301.662 84.9913C296.347 84.9913 291.335 83.944 286.625 81.8561C281.927 79.7682 277.787 76.9032 274.203 73.2674C272.229 75.5859 270.649 77.9306 269.457 80.3018C268.276 82.6597 267.689 85.123 267.689 87.7049C267.689 90.952 268.391 93.9357 269.796 96.6624C271.212 99.3826 273.162 101.576 275.632 103.249C278.114 104.935 280.898 105.864 283.986 106.042C286.873 106.2 289.628 105.699 292.243 104.54C294.87 103.381 297.425 101.905 299.895 100.114C302.376 98.3354 304.883 96.5373 307.401 94.7129C309.931 92.9016 312.565 91.3735 315.295 90.1287C318.037 88.897 320.949 88.2845 324.036 88.2845C327.311 88.2845 330.005 89.3383 332.124 91.446C334.255 93.5668 335.32 96.3463 335.32 99.7712C335.32 101.194 335.012 102.518 334.4 103.749C333.801 104.994 332.923 105.962 331.761 106.647C330.599 107.332 329.158 107.57 327.451 107.359C328.401 106.582 329.085 105.699 329.509 104.698C329.945 103.71 330.163 102.702 330.163 101.668C330.163 99.2443 329.388 97.163 327.838 95.4242C326.3 93.6985 324.23 92.8423 321.615 92.8423C318.467 92.8423 315.567 93.3561 312.922 94.3967C310.27 95.4505 307.722 96.7283 305.27 98.2432C302.812 99.7515 300.342 101.247 297.86 102.722C295.391 104.21 292.788 105.422 290.063 106.358C287.333 107.286 284.349 107.701 281.104 107.596C277.871 107.438 275.038 106.595 272.605 105.067C270.183 103.552 268.301 101.563 266.963 99.0863C265.619 96.6229 264.953 93.9027 264.953 90.9191C264.953 87.5073 265.734 84.2931 267.302 81.2765C268.864 78.26 270.916 75.3422 273.452 72.5298ZM336.628 39.4395C336.628 32.8926 335.671 27.2678 333.771 22.5783C331.882 17.8756 329.315 14.0554 326.07 11.1179C322.838 8.16717 319.224 6.05952 315.222 4.79492C316.542 6.05952 317.595 7.7654 318.37 9.90599C319.157 12.0532 319.557 14.7997 319.557 18.1522C319.557 22.2292 318.806 26.0296 317.305 29.5599C315.816 33.077 313.806 36.4032 311.275 39.5449C308.757 42.6735 305.93 45.6505 302.8 48.4761C299.664 51.3083 296.432 54.0482 293.09 56.696C289.749 59.3306 286.534 61.9322 283.453 64.4943C280.366 67.0433 277.641 69.6186 275.268 72.2136C278.089 75.3949 281.383 77.7396 285.148 79.2479C288.925 80.7628 292.884 81.5137 297.037 81.5137C300.827 81.5137 304.604 80.9209 308.37 79.7221C312.129 78.5102 315.707 76.7385 319.097 74.4003C322.487 72.049 325.495 69.1707 328.129 65.7589C330.756 62.3537 332.832 58.4546 334.352 54.0614C335.865 49.6551 336.628 44.7811 336.628 39.4395ZM274.59 71.3706C277.157 68.736 280.002 66.1475 283.138 63.5986C286.286 61.0364 289.494 58.448 292.775 55.8266C296.069 53.2118 299.229 50.5311 302.268 47.7911C305.3 45.038 308.043 42.1268 310.5 39.0707C312.952 36.0146 314.883 32.7411 316.288 29.2437C317.704 25.7529 318.419 21.9987 318.419 17.9941C318.419 14.2003 317.795 11.276 316.554 9.221C315.325 7.15286 313.751 5.69068 311.832 4.84761C309.907 3.99138 307.934 3.49739 305.9 3.37225C304.38 3.37225 302.849 3.46446 301.299 3.63571C299.761 3.79378 298.236 4.09676 296.722 4.53146C296.414 4.58416 296.172 4.65661 295.996 4.74223C295.833 4.83444 295.754 4.87396 295.754 4.87396L295.826 4.79492C292.031 5.88827 288.399 7.60733 284.93 9.95868C281.473 12.2969 278.392 15.241 275.68 18.7845C272.98 22.3346 270.843 26.4379 269.263 31.0879C267.695 35.7248 266.914 40.9083 266.914 46.6319C266.914 52.0789 267.604 56.8475 268.997 60.9376C270.401 65.0344 272.266 68.512 274.59 71.3706Z" fill="#282828"/>
<path d="M108.03 1.74219H113.503L137.039 35.2539C138.232 33.2385 139.509 31.0913 140.865 28.8256C142.221 26.5467 143.486 24.2414 144.667 21.923C145.841 19.6046 146.81 17.3784 147.573 15.2312C148.329 13.0708 148.711 11.1213 148.711 9.38245C148.711 7.53825 148.275 6.11558 147.403 5.11444C146.531 4.10013 145.454 3.38879 144.183 2.98044C142.905 2.57866 141.622 2.37448 140.332 2.37448V1.74219H162.707V2.37448C161.042 2.37448 159.389 3.10558 157.743 4.56118C156.096 6.02337 154.462 7.92685 152.851 10.2782C151.253 12.6361 149.655 15.1785 148.057 17.9185C146.471 20.6584 144.933 23.293 143.432 25.8222C141.555 28.9178 140.09 31.3482 139.025 33.1199C137.959 34.8785 137.233 36.0311 136.846 36.5712V53.7223C136.846 55.7114 137.045 57.5029 137.451 59.0968C137.869 60.6973 138.547 61.9619 139.485 62.8906C140.435 63.8259 141.725 64.2869 143.359 64.2869H144.982V64.9719H124.351V64.2869H125.997C127.608 64.2869 128.891 63.8259 129.848 62.8906C130.798 61.9619 131.476 60.6973 131.882 59.0968C132.281 57.5029 132.487 55.7114 132.487 53.7223V36.5712L108.03 1.74219Z" fill="#282828"/>
<path d="M113.712 83.5586H157.05" stroke="#282828" stroke-width="1.89087"/>
<path d="M11.2355 130.733H3.26896L1.57394 134.869H0L6.5137 119.352H8.015L14.5287 134.869H12.9305L11.2355 130.733ZM10.6786 129.389L7.24014 121.038L3.82589 129.389H10.6786Z" fill="#282828"/>
<path d="M24.6191 119.352H26.1204V134.869H24.6191V119.352Z" fill="#282828"/>
<path d="M37.3965 128.184H42.7237V129.554H37.3965V128.184Z" fill="#282828"/>
<path d="M59.3455 119.352C61.1495 119.352 62.5721 119.826 63.6073 120.774C64.6364 121.71 65.157 123.007 65.157 124.673C65.157 126.327 64.6364 127.624 63.6073 128.573C62.5721 129.508 61.1495 129.969 59.3455 129.969H55.4954V134.869H53.9941V119.352H59.3455ZM59.2971 128.52C60.7016 128.52 61.7731 128.191 62.5176 127.519C63.2744 126.854 63.6557 125.905 63.6557 124.673C63.6557 123.409 63.2744 122.447 62.5176 121.775C61.7731 121.09 60.7016 120.748 59.2971 120.748H55.4954V128.52H59.2971Z" fill="#282828"/>
<path d="M82.5983 134.984C81.1757 134.984 79.8923 134.642 78.7482 133.957C77.598 133.272 76.7021 132.336 76.0604 131.138C75.4126 129.926 75.0918 128.576 75.0918 127.08C75.0918 125.592 75.4126 124.248 76.0604 123.05C76.7021 121.857 77.598 120.916 78.7482 120.231C79.8923 119.546 81.1757 119.203 82.5983 119.203C84.0027 119.203 85.2679 119.546 86.4 120.231C87.5441 120.902 88.44 121.838 89.0878 123.05C89.7476 124.248 90.0806 125.592 90.0806 127.08C90.0806 128.576 89.7476 129.926 89.0878 131.138C88.44 132.35 87.5441 133.298 86.4 133.983C85.2679 134.655 84.0027 134.984 82.5983 134.984ZM82.5983 133.509C83.7243 133.509 84.7413 133.239 85.6493 132.692C86.5513 132.132 87.2596 131.362 87.7802 130.374C88.2948 129.392 88.5551 128.292 88.5551 127.08C88.5551 125.869 88.2948 124.775 87.7802 123.787C87.2596 122.806 86.5513 122.042 85.6493 121.495C84.7413 120.935 83.7243 120.652 82.5983 120.652C81.4663 120.652 80.4432 120.935 79.5231 121.495C78.6029 122.042 77.8765 122.806 77.3437 123.787C76.8231 124.775 76.5689 125.869 76.5689 127.08C76.5689 128.292 76.8231 129.392 77.3437 130.374C77.8765 131.362 78.6029 132.132 79.5231 132.692C80.4432 133.239 81.4663 133.509 82.5983 133.509Z" fill="#282828"/>
<path d="M120.754 119.352L115.936 134.869H114.362L110.173 121.617L105.983 134.869H104.41L99.5908 119.352H101.141L105.257 132.682L109.519 119.352H110.923L115.137 132.762L119.301 119.352H120.754Z" fill="#282828"/>
<path d="M141.639 133.447V134.869H131.542V119.352H141.325V120.748H133.043V126.28H140.429V127.677H133.043V133.447H141.639Z" fill="#282828"/>
<path d="M162.632 134.869L159.387 129.89C159.012 129.929 158.636 129.943 158.249 129.943H154.399V134.869H152.897V119.352H158.249C160.053 119.352 161.475 119.826 162.511 120.774C163.54 121.71 164.06 123.007 164.06 124.673C164.06 125.885 163.776 126.913 163.213 127.756C162.662 128.586 161.863 129.179 160.816 129.547L164.302 134.869H162.632ZM158.2 128.546C159.605 128.546 160.676 128.217 161.421 127.545C162.178 126.86 162.559 125.905 162.559 124.673C162.559 123.409 162.178 122.447 161.421 121.775C160.676 121.09 159.605 120.748 158.2 120.748H154.399V128.546H158.2Z" fill="#282828"/>
<path d="M185.449 133.447V134.869H175.352V119.352H185.134V120.748H176.853V126.28H184.238V127.677H176.853V133.447H185.449Z" fill="#282828"/>
<path d="M196.715 119.352H202.526C204.028 119.352 205.359 119.687 206.522 120.353C207.684 121.005 208.58 121.92 209.21 123.093C209.851 124.252 210.178 125.589 210.178 127.097C210.178 128.612 209.851 129.956 209.21 131.128C208.58 132.307 207.684 133.229 206.522 133.894C205.359 134.546 204.028 134.869 202.526 134.869H196.715V119.352ZM202.454 133.447C203.695 133.447 204.784 133.183 205.723 132.656C206.655 132.116 207.381 131.365 207.902 130.417C208.417 129.455 208.677 128.349 208.677 127.097C208.677 125.872 208.417 124.779 207.902 123.83C207.381 122.869 206.655 122.111 205.723 121.565C204.784 121.025 203.695 120.748 202.454 120.748H198.216V133.447H202.454Z" fill="#282828"/>
<path d="M243.316 126.86C244.248 127.091 244.974 127.538 245.495 128.204C246.009 128.856 246.27 129.699 246.27 130.733C246.27 132.05 245.816 133.071 244.914 133.789C244.006 134.514 242.668 134.869 240.894 134.869H234.332V119.352H240.483C242.081 119.352 243.316 119.707 244.187 120.405C245.059 121.09 245.495 122.065 245.495 123.33C245.495 124.193 245.301 124.924 244.914 125.516C244.526 126.116 243.994 126.564 243.316 126.86ZM235.833 120.695V126.333H240.386C241.548 126.333 242.432 126.096 243.049 125.622C243.679 125.134 243.994 124.43 243.994 123.514C243.994 122.605 243.679 121.907 243.049 121.433C242.432 120.945 241.548 120.695 240.386 120.695H235.833ZM240.87 133.526C242.141 133.526 243.104 133.288 243.751 132.814C244.411 132.34 244.744 131.596 244.744 130.575C244.744 128.645 243.449 127.677 240.87 127.677H235.833V133.526H240.87Z" fill="#282828"/>
<path d="M267.511 133.447V134.869H257.413V119.352H267.196V120.748H258.914V126.28H266.3V127.677H258.914V133.447H267.511Z" fill="#282828"/>
<path d="M287.733 130.733H279.766L278.071 134.869H276.497L283.011 119.352H284.512L291.026 134.869H289.428L287.733 130.733ZM287.176 129.389L283.737 121.038L280.323 129.389H287.176Z" fill="#282828"/>
<path d="M306.848 135.001C305.008 135.001 303.567 134.434 302.538 133.288C301.503 132.129 300.988 130.443 300.988 128.23V119.352H302.49V128.177C302.49 129.969 302.859 131.313 303.603 132.208C304.36 133.091 305.444 133.526 306.848 133.526C308.283 133.526 309.373 133.091 310.117 132.208C310.856 131.313 311.231 129.969 311.231 128.177V119.352H312.708V128.23C312.708 130.443 312.187 132.129 311.158 133.288C310.141 134.434 308.701 135.001 306.848 135.001Z" fill="#282828"/>
<path d="M327.732 120.748H322.72V119.352H334.27V120.748H329.258V134.869H327.732V120.748Z" fill="#282828"/>
<path d="M349.282 129.495V134.869H347.804V129.495L342.09 119.352H343.688L348.579 128.072L353.495 119.352H354.996L349.282 129.495Z" fill="#282828"/>
<path d="M364.886 134.99C364.595 134.99 364.341 134.878 364.135 134.648C363.923 134.404 363.82 134.114 363.82 133.778C363.82 133.449 363.923 133.166 364.135 132.935C364.341 132.692 364.595 132.567 364.886 132.567C365.188 132.567 365.449 132.692 365.661 132.935C365.885 133.166 366 133.449 366 133.778C366 134.114 365.885 134.404 365.661 134.648C365.449 134.878 365.188 134.99 364.886 134.99Z" fill="#282828"/>
</svg>
